<svg xmlns="http://www.w3.org/2000/svg" xmlns:svg="http://www.w3.org/2000/svg" id="svg3946" width="4000" height="2066" version="1.1" viewBox="0 0 1058.333 546.629"><metadata id="metadata3943"/><g style="display:inline" id="layer1" transform="translate(337.81245,-63.610872)"><g id="g3923" transform="matrix(0.0554777,0,0,0.0554777,-20.46673,394.10998)"><g id="g3471" transform="matrix(3.8252342,1.1694915,-1.1694915,3.8252342,160.98926,2736.9883)"><path id="path3473" d="m 124.8418,1965.666 -99.31055,10.4043 263.68024,306.2483 319.20843,7.9373 -60.94531,-83.6465 -232.24023,23.6172 z" transform="matrix(0.71722575,-0.21927793,0.21927793,0.71722575,-403.80749,-1382.4507)" style="fill:#7ebae4;fill-opacity:1;fill-rule:evenodd;stroke:none;stroke-width:1.33333862"/></g><g id="g3475" transform="matrix(3.9902563,0.27902588,-0.27902588,3.9902563,-15746.739,10343.153)"><path id="path3477" d="M -76.771484,1729.8066 V 2306.418 H 2466.793 V 2036.5137 L 298.80078,2264.1602 Z" transform="matrix(0.74817306,-0.05231735,0.05231735,0.74817306,3752.1251,-3612.187)" style="fill:#f2f8fd;fill-opacity:1;fill-rule:nonzero;stroke:none;stroke-width:1.33333325"/></g></g><rect id="rect2877" width="659.864" height="329.672" x="-142.425" y="312.884" transform="rotate(54.837663)" style="opacity:1;fill:#f2f8fd;fill-opacity:1;stroke-width:.32801086"/><rect id="rect2877-6" width="112.931" height="701.9" x="604.32" y="-681.016" transform="rotate(84.019957)" style="opacity:1;fill:#f2f8fd;fill-opacity:1;stroke-width:.32801086"/></g></svg>