<svg xmlns="http://www.w3.org/2000/svg" xmlns:svg="http://www.w3.org/2000/svg" id="svg3946" width="4000" height="2066" version="1.1" viewBox="0 0 1058.333 546.629"><metadata id="metadata3943"/><g id="layer2" transform="translate(317.5,450.66165)" style="display:inline"><rect style="opacity:1;fill:#ffb100;fill-opacity:1;stroke-width:1.42634046" id="rect2840-3" width="1058.333" height="546.629" x="-317.5" y="-450.662"/><rect style="opacity:1;fill:#0f0;fill-opacity:1;stroke-width:.57046229" id="rect2840" width="423.333" height="95.779" x="0" y=".188"/><text style="font-style:normal;font-weight:400;font-size:10.58333397px;line-height:1.25;font-family:sans-serif;letter-spacing:0;word-spacing:0;fill:#000;fill-opacity:1;stroke:none;stroke-width:.26458335" id="text2860" x="338.514" y="-92.291" xml:space="preserve"><tspan id="tspan2858" x="338.514" y="-92.291" style="stroke-width:.26458335">Delete this layer (GUIDES) before exporting</tspan></text><text style="font-style:normal;font-weight:400;font-size:10.58333302px;line-height:1.25;font-family:sans-serif;letter-spacing:0;word-spacing:0;fill:#000;fill-opacity:1;stroke:none;stroke-width:.26458335" id="text2885" x="146.714" y="11.777" xml:space="preserve"><tspan id="tspan2883" x="146.714" y="11.777" style="stroke-width:.26458335">&quot;normal&quot; viewport</tspan></text><text style="font-style:normal;font-weight:400;font-size:10.58333302px;line-height:1.25;font-family:sans-serif;letter-spacing:0;word-spacing:0;fill:#000;fill-opacity:1;stroke:none;stroke-width:.26458335" id="text2889" x="575.264" y="-1.085" xml:space="preserve"><tspan id="tspan2887" x="575.264" y="-1.085" style="stroke-width:.26458335">Largest viewport</tspan></text></g><g id="layer1" transform="translate(337.81245,-63.610872)" style="display:inline"><g id="g3923" transform="matrix(0.0554777,0,0,0.0554777,-20.46673,394.10998)"><g id="g3471" transform="matrix(3.8252342,1.1694915,-1.1694915,3.8252342,160.98926,2736.9883)"><path style="fill:#7ebae4;fill-opacity:1;fill-rule:evenodd;stroke:none;stroke-width:1.33333862" id="path3473" d="m 124.8418,1965.666 -99.31055,10.4043 263.68024,306.2483 319.20843,7.9373 -60.94531,-83.6465 -232.24023,23.6172 z" transform="matrix(0.71722575,-0.21927793,0.21927793,0.71722575,-403.80749,-1382.4507)"/></g><g id="g3475" transform="matrix(3.9902563,0.27902588,-0.27902588,3.9902563,-15746.739,10343.153)"><path style="fill:#f2f8fd;fill-opacity:1;fill-rule:nonzero;stroke:none;stroke-width:1.33333325" id="path3477" d="M -76.771484,1729.8066 V 2306.418 H 2466.793 V 2036.5137 L 298.80078,2264.1602 Z" transform="matrix(0.74817306,-0.05231735,0.05231735,0.74817306,3752.1251,-3612.187)"/></g></g><rect style="opacity:1;fill:#f2f8fd;fill-opacity:1;stroke-width:.32801086" id="rect2877" width="659.864" height="329.672" x="-142.425" y="312.884" transform="rotate(54.837663)"/><rect style="opacity:1;fill:#f2f8fd;fill-opacity:1;stroke-width:.32801086" id="rect2877-6" width="112.931" height="701.9" x="604.32" y="-681.016" transform="rotate(84.019957)"/></g></svg>