<svg xmlns="http://www.w3.org/2000/svg" xmlns:svg="http://www.w3.org/2000/svg" id="svg5105" width="138" height="138" version="1.1" viewBox="0 0 138 138"><metadata id="metadata5102"/><g id="layer1" transform="translate(-26.038429,-10.000418)"><path id="path1362" d="M 139.84838,28.133432 96.267044,12.973419 c -0.792,-0.272 -1.66532,-0.270653 -2.46132,0.0013 L 50.227045,28.133432 c -4.14532,1.431987 -6.844,5.338653 -6.712,9.721333 l 1.870667,67.338655 c 0.096,3.11334 1.594666,5.95733 4.11332,7.80133 l 43.333332,31.51734 c 0.64668,0.46933 1.410667,0.71866 2.206667,0.71866 0.79468,0 1.558679,-0.24933 2.206666,-0.72 l 43.337343,-31.51866 c 2.51599,-1.84267 4.01335,-4.68667 4.10934,-7.80401 l 1.86934,-67.326662 c 0.13334,-4.388 -2.56401,-8.295999 -6.71334,-9.727986 z m -0.78402,9.511973 -1.87064,67.330675 c -0.0227,0.77067 -0.40666,1.50134 -1.02669,1.95467 L 95.039031,136.84409 53.913712,106.93342 c -0.621334,-0.456 -1.00668,-1.18533 -1.030667,-1.95334 L 51.012378,37.642738 c -0.03333,-1.09332 0.64,-2.067986 1.675987,-2.425333 l 42.350666,-14.73064 42.353329,14.731987 c 1.03334,0.357346 1.70532,1.331986 1.672,2.426653 z" style="fill:#fff;fill-opacity:1;fill-rule:nonzero;stroke:none;stroke-width:1.33333"/><path id="path1364" d="m 124.60038,56.753418 c -2.856,-2.858667 -7.48935,-2.858667 -10.34534,0 L 87.721711,83.285417 80.700378,76.264084 c -1.366667,-1.390667 -3.233347,-2.177333 -5.185334,-2.185333 -1.949333,-0.008 -3.823986,0.762666 -5.204,2.142666 -1.379999,1.38 -2.149333,3.253334 -2.141333,5.202667 0.008,1.952 0.794654,3.818666 2.184,5.186666 l 12.194667,12.194671 c 2.857333,2.857329 7.490653,2.857329 10.346679,0 L 124.60038,67.100084 c 2.85868,-2.857333 2.85868,-7.490666 0,-10.346666 z m -3.44666,6.898666 -31.705343,31.705329 c -0.954666,0.952005 -2.497333,0.952005 -3.452,0 L 73.801711,83.162751 c -0.953333,-0.952 -0.953333,-2.498667 0,-3.452 0.953333,-0.952 2.498653,-0.952 3.452,0 l 8.742666,8.747999 c 0.954667,0.950667 2.497334,0.950667 3.452,0 L 117.7017,60.200084 c 0.95336,-0.953333 2.49869,-0.953333 3.45202,0 0.95332,0.953334 0.95332,2.498667 0,3.452 z" style="fill:#fff;fill-opacity:1;fill-rule:nonzero;stroke:none;stroke-width:1.33333"/></g></svg>