<svg xmlns="http://www.w3.org/2000/svg" xmlns:svg="http://www.w3.org/2000/svg" xmlns:xlink="http://www.w3.org/1999/xlink" id="svg2" width="587.11" height="516.604" version="1.1" viewBox="0 0 550.416 484.317"><defs id="defs4"><linearGradient id="linearGradient5562"><stop id="stop5564" offset="0" style="stop-color:#699ad7;stop-opacity:1"/><stop style="stop-color:#7eb1dd;stop-opacity:1" id="stop5566" offset=".243"/><stop id="stop5568" offset="1" style="stop-color:#7ebae4;stop-opacity:1"/></linearGradient><linearGradient id="linearGradient5053"><stop id="stop5055" offset="0" style="stop-color:#415e9a;stop-opacity:1"/><stop style="stop-color:#4a6baf;stop-opacity:1" id="stop5057" offset=".232"/><stop id="stop5059" offset="1" style="stop-color:#5277c3;stop-opacity:1"/></linearGradient><linearGradient id="linearGradient871" x1="200.597" x2="290.087" y1="351.411" y2="506.188" gradientTransform="translate(70.650339,-1055.1511)" gradientUnits="userSpaceOnUse" xlink:href="#linearGradient5562"/><linearGradient id="linearGradient873" x1="-584.199" x2="-496.297" y1="782.336" y2="937.714" gradientTransform="translate(864.69589,-1491.3405)" gradientUnits="userSpaceOnUse" xlink:href="#linearGradient5053"/></defs><metadata id="metadata7"/><g style="display:inline;opacity:1" id="layer3" transform="translate(-132.65129,958.04022)"><path style="opacity:1;fill:url(#linearGradient871);fill-opacity:1;fill-rule:evenodd;stroke:none;stroke-width:3;stroke-linecap:butt;stroke-linejoin:round;stroke-miterlimit:4;stroke-dasharray:none;stroke-opacity:1" id="path3336-6" d="m 309.54892,-710.38827 122.19683,211.67512 -56.15706,0.5268 -32.6236,-56.8692 -32.85645,56.5653 -27.90237,-0.011 -14.29086,-24.6896 46.81047,-80.4901 -33.22946,-57.8257 z"/><use id="use3439-6" width="100%" height="100%" x="0" y="0" transform="rotate(60,407.11155,-715.78724)" xlink:href="#path3336-6"/><use id="use3445-0" width="100%" height="100%" x="0" y="0" transform="rotate(-60,407.31177,-715.70016)" xlink:href="#path3336-6"/><use id="use3449-5" width="100%" height="100%" x="0" y="0" transform="rotate(180,407.41868,-715.7565)" xlink:href="#path3336-6"/><path id="path4260-0" d="m 309.54892,-710.38827 122.19683,211.67512 -56.15706,0.5268 -32.6236,-56.8692 -32.85645,56.5653 -27.90237,-0.011 -14.29086,-24.6896 46.81047,-80.4901 -33.22946,-57.8256 z" style="color:#000;clip-rule:nonzero;display:inline;overflow:visible;visibility:visible;opacity:1;isolation:auto;mix-blend-mode:normal;color-interpolation:sRGB;color-interpolation-filters:linearRGB;solid-color:#000;solid-opacity:1;fill:url(#linearGradient873);fill-opacity:1;fill-rule:evenodd;stroke:none;stroke-width:3;stroke-linecap:butt;stroke-linejoin:round;stroke-miterlimit:4;stroke-dasharray:none;stroke-dashoffset:0;stroke-opacity:1;color-rendering:auto;image-rendering:auto;shape-rendering:auto;text-rendering:auto;enable-background:accumulate"/><use style="display:inline" id="use4354-5" width="100%" height="100%" x="0" y="0" transform="rotate(120,407.33916,-716.08356)" xlink:href="#path4260-0"/><use style="display:inline" id="use4362-2" width="100%" height="100%" x="0" y="0" transform="rotate(-120,407.28823,-715.86995)" xlink:href="#path4260-0"/></g></svg>